<?xml version="1.0" encoding="UTF-8"?>
<svg id="Ebene_1" data-name="Ebene 1" xmlns="http://www.w3.org/2000/svg" viewBox="0 0 564.33 141.15">
  <defs>
    <style>
      .cls-1 {
        fill: #9fe870;
      }

      .cls-2 {
        fill: none;
        stroke: #9fe870;
        stroke-miterlimit: 10;
        stroke-width: 13px;
      }
    </style>
  </defs>
  <g>
    <path class="cls-1" d="m.32,134.57l-.32-57.52,17.08-.1.32,57.52-17.08.1Zm16.9-31.76l-7.03-5.06c1.15-6.89,3.47-12.27,6.97-16.17,3.49-3.89,8.41-5.86,14.73-5.9,2.77-.02,5.22.41,7.36,1.26,2.14.86,4.05,2.23,5.72,4.12l-10.25,12.75c-.8-.94-1.81-1.65-3.04-2.12-1.23-.47-2.63-.7-4.21-.69-3.16.02-5.67,1-7.52,2.95-1.85,1.95-2.76,4.9-2.74,8.85Z"/>
    <path class="cls-1" d="m76.83,135.45c-6.17.03-11.65-1.22-16.45-3.76-4.8-2.54-8.57-6.08-11.33-10.61-2.75-4.53-4.15-9.68-4.18-15.45-.03-5.77,1.28-10.92,3.94-15.44,2.66-4.52,6.3-8.12,10.91-10.79,4.61-2.67,9.8-4.03,15.57-4.06,5.61-.03,10.58,1.19,14.91,3.65,4.32,2.47,7.72,5.85,10.2,10.14,2.47,4.3,3.73,9.21,3.76,14.75,0,1.11-.07,2.21-.22,3.32-.15,1.11-.34,2.37-.57,3.8l-49.1.4-.07-12.1,41.63-.47-7.32,5.26c-.02-3.4-.55-6.2-1.59-8.41-1.04-2.21-2.51-3.9-4.42-5.07-1.9-1.18-4.28-1.76-7.13-1.74-2.93.02-5.47.7-7.64,2.06-2.17,1.36-3.82,3.24-4.95,5.66-1.13,2.42-1.69,5.33-1.67,8.73.02,3.48.65,6.46,1.89,8.94,1.24,2.48,3.01,4.37,5.31,5.66,2.3,1.29,5.07,1.93,8.31,1.91,2.85-.02,5.43-.52,7.76-1.53,2.33-1,4.35-2.49,6.08-4.48l9.66,9.55c-2.75,3.34-6.13,5.85-10.16,7.53-4.02,1.68-8.41,2.54-13.15,2.56Z"/>
    <path class="cls-1" d="m140.99,135.09c-5.93.03-11.27-1.24-16.03-3.82-4.76-2.58-8.52-6.16-11.27-10.73-2.75-4.57-4.15-9.66-4.18-15.28-.03-5.69,1.3-10.82,4-15.38,2.7-4.56,6.44-8.18,11.21-10.86,4.77-2.67,10.12-4.03,16.05-4.06,4.51-.03,8.64.76,12.41,2.36,3.76,1.6,7.08,3.93,9.94,7l-10.85,10.97c-1.43-1.57-3.1-2.73-5-3.47-1.9-.74-4.04-1.1-6.41-1.09-2.77.02-5.2.62-7.28,1.82-2.09,1.2-3.72,2.87-4.89,5.01-1.17,2.14-1.75,4.64-1.74,7.48s.62,5.33,1.82,7.46c1.2,2.13,2.87,3.82,5.01,5.07,2.14,1.25,4.56,1.87,7.24,1.86,2.45-.01,4.64-.46,6.58-1.34,1.93-.88,3.61-2.11,5.02-3.71l11.09,10.97c-3.07,3.1-6.47,5.49-10.22,7.17-3.75,1.68-7.91,2.54-12.5,2.56Z"/>
    <path class="cls-1" d="m172.06,133.61l-.32-57.52,17.08-.1.32,57.52-17.08.1Zm16.9-31.76l-7.03-5.06c1.15-6.89,3.47-12.27,6.97-16.17,3.5-3.89,8.41-5.86,14.73-5.9,2.77-.02,5.22.41,7.36,1.26,2.14.86,4.05,2.23,5.72,4.12l-10.25,12.75c-.8-.94-1.81-1.65-3.04-2.12-1.23-.47-2.63-.7-4.21-.69-3.16.02-5.67,1-7.52,2.95-1.85,1.95-2.76,4.9-2.74,8.85Z"/>
    <path class="cls-1" d="m247.14,134.49c-5.14.03-9.73-1.03-13.78-3.18-4.04-2.15-7.2-5.14-9.48-8.96-2.27-3.82-3.43-8.22-3.45-13.2l-.19-33.33,17.08-.1.19,33.09c.01,2.21.42,4.09,1.22,5.63.8,1.54,1.89,2.7,3.28,3.48,1.39.78,3.07,1.17,5.05,1.16,2.92-.02,5.23-.94,6.92-2.77,1.69-1.83,2.53-4.36,2.51-7.6l-.19-33.09,17.08-.1.19,33.45c.03,4.98-1.07,9.4-3.31,13.24-2.23,3.85-5.34,6.85-9.32,9.01-3.98,2.16-8.58,3.25-13.8,3.28Z"/>
    <path class="cls-1" d="m280.33,90.18l-.08-14.71,43.41-.24.08,14.71-43.41.24Zm13.52,42.74l-.46-81.24,17.08-.1.46,81.24-17.08.1Z"/>
    <path class="cls-1" d="m356.36,133.75c-5.22.03-9.93-1.25-14.14-3.83-4.21-2.59-7.51-6.12-9.9-10.62-2.4-4.49-3.61-9.59-3.64-15.28-.03-5.77,1.12-10.9,3.47-15.38,2.35-4.48,5.59-8.06,9.72-10.73,4.14-2.67,8.85-4.02,14.15-4.05,3.95-.02,7.52.75,10.69,2.31,3.17,1.56,5.75,3.72,7.75,6.48,1.99,2.76,3.12,5.91,3.37,9.47l.13,23.25c-.22,3.48-1.29,6.61-3.21,9.39-1.92,2.78-4.48,4.97-7.67,6.57s-6.77,2.41-10.72,2.43Zm3.23-15.56c4.03-.02,7.31-1.38,9.82-4.09,2.51-2.7,3.76-6.19,3.74-10.46-.02-2.77-.6-5.23-1.76-7.4-1.16-2.17-2.75-3.86-4.77-5.07-2.02-1.21-4.38-1.81-7.07-1.8-2.61.01-4.94.64-6.99,1.88-2.05,1.24-3.66,2.95-4.83,5.13-1.17,2.18-1.75,4.69-1.74,7.54.02,2.77.62,5.24,1.82,7.4,1.2,2.17,2.81,3.86,4.83,5.07,2.02,1.21,4.34,1.81,6.95,1.8Zm13.01,14.28l-.09-15.54,2.53-13.89-2.69-13.86-.08-14.23,16.84-.1.32,57.52-16.84.1Z"/>
  </g>
  <path class="cls-2" d="m442.05,70.02c4.35-20.37,8.7-40.73,13.04-61.1,7.04-.92,17.38-1,27.59,4.64,12.02,6.65,14.43,16.03,25.51,22.43,6.48,3.74,16.86,7.01,33.17,3.03-28.04,25.8-43.67,27.61-52.86,23.96-2.62-1.04-4.4-2.4-8.3-3.49-14.21-3.98-28.31,3.46-38.15,10.53Z"/>
  <path class="cls-1" d="m416.93,133.32c-3.69.07-7.38.13-11.08.2l-4.26.08c5.16-24.81,9.88-49.96,14.99-74.79,3.94-19.15,7.34-37.94,11.25-57.09,1.67-1.01,4.92-1.96,8.06-1.68,1.5.13,3.39.61,3.7.77,1.76.92,2.37,1.98,2.89,2.88-8.52,43.21-17.03,86.41-25.55,129.62Z"/>
</svg>